<svg id="fea7e912-4ca2-4ad7-8fae-25bdbe3b78dd" data-name="Layer 1" xmlns="http://www.w3.org/2000/svg" width="749.66868" height="608.1982" viewBox="0 0 749.66868 608.1982"><path d="M689.13834,579.16405H248.86971a18.30678,18.30678,0,0,1-18.286-18.286V245.01163a18.30678,18.30678,0,0,1,18.286-18.286H689.13834a18.30678,18.30678,0,0,1,18.286,18.286V560.87807A18.30677,18.30677,0,0,1,689.13834,579.16405ZM248.86971,236.34985a8.67186,8.67186,0,0,0-8.66178,8.66178V560.87807a8.67155,8.67155,0,0,0,8.66178,8.66178H689.13834a8.67155,8.67155,0,0,0,8.66178-8.66178V245.01163a8.67185,8.67185,0,0,0-8.66178-8.66178Z" transform="translate(-225.26637 -135.8018)" fill="#e6e6e6"/><circle cx="234.3806" cy="516.02819" r="35.42303" fill="#e6e6e6"/><circle cx="234.3806" cy="516.0282" r="27.15766" fill="#fff"/><path d="M473.25209,666.6626a1.23082,1.23082,0,0,1-.87436-.36259l-27.21359-27.21359a1.237,1.237,0,0,1,1.74879-1.74877l27.21359,27.21359a1.237,1.237,0,0,1-.87436,2.11136Z" transform="translate(-225.26637 -135.8018)" fill="#ffacf7"/><path d="M459.0268,656.44589l-4.00395-4.00395a.15462.15462,0,0,0-.26209.13063,4.95644,4.95644,0,0,0,4.13538,4.13539.15463.15463,0,0,0,.13066-.26207Z" transform="translate(-225.26637 -135.8018)" fill="#ffacf7"/><path d="M460.26378,647.19173l4.01013,4.00858a.15463.15463,0,0,0,.26286-.13064,4.958,4.958,0,0,0-4.14-4.14.15461.15461,0,0,0-.133.26207Z" transform="translate(-225.26637 -135.8018)" fill="#ffacf7"/><path d="M477.81346,653.16092a2.48948,2.48948,0,0,0-.00774-2.68734,26.20344,26.20344,0,0,0-7.6747-7.77209,19.44711,19.44711,0,0,0-10.51049-3.25248,17.51376,17.51376,0,0,0-5.55249.91149.30927.30927,0,0,0-.1206.51257l3.65219,3.65219a.30923.30923,0,0,0,.29533.08118,7.42189,7.42189,0,0,1,8.9681,8.96811.30927.30927,0,0,0,.08118.29456l5.2533,5.25719a.30928.30928,0,0,0,.41749.01854A26.58081,26.58081,0,0,0,477.81346,653.16092Z" transform="translate(-225.26637 -135.8018)" fill="#ffacf7"/><path d="M459.64528,659.24068a7.42185,7.42185,0,0,1-7.21316-9.17145.30924.30924,0,0,0-.08117-.29456l-5.16749-5.1698a.30925.30925,0,0,0-.41826-.01778,30.91276,30.91276,0,0,0-5.23165,5.854,2.46773,2.46773,0,0,0-.04948,2.74763,25.82206,25.82206,0,0,0,7.59816,7.78137,19.15823,19.15823,0,0,0,10.5383,3.21846,18.41582,18.41582,0,0,0,5.61589-.893.30923.30923,0,0,0,.12447-.51334l-3.67-3.6692a.30933.30933,0,0,0-.29456-.08118A7.41934,7.41934,0,0,1,459.64528,659.24068Z" transform="translate(-225.26637 -135.8018)" fill="#ffacf7"/><circle cx="99.98146" cy="516.02819" r="35.42304" fill="#e6e6e6"/><circle cx="99.98146" cy="516.0282" r="27.15766" fill="#fff"/><path d="M335.6808,669.14724c-1.5091,0-3.629-.54583-6.80339-2.31931a44.23422,44.23422,0,0,1-10.6852-7.99245,40.54827,40.54827,0,0,1-8.02415-10.68213c-2.84813-5.17984-2.36264-7.895-1.81991-9.05545a7.2283,7.2283,0,0,1,2.83347-3.0399,13.6287,13.6287,0,0,1,2.2142-1.17513c.07733-.03326.14922-.06494.21339-.09355a2.06917,2.06917,0,0,1,1.697-.15462,4.971,4.971,0,0,1,1.61272,1.237,26.80358,26.80358,0,0,1,4.03256,5.98621,5.96366,5.96366,0,0,1,.79089,2.45155,3.87424,3.87424,0,0,1-.98571,2.30467c-.10127.13837-.2018.27058-.29919.39891-.58836.77312-.71746.99653-.63241,1.39549a14.666,14.666,0,0,0,3.571,5.2966,14.05727,14.05727,0,0,0,5.23552,3.48444c.41592.08892.644-.04562,1.44186-.65481.1144-.08734.23192-.17783.35485-.26824a3.8951,3.8951,0,0,1,2.33944-1.04679h.00463a5.60221,5.60221,0,0,1,2.46312.86424,29.53206,29.53206,0,0,1,5.96376,4.00318,4.96892,4.96892,0,0,1,1.24082,1.60887,2.0855,2.0855,0,0,1-.15463,1.70084c-.0286.06417-.0603.13454-.09355.21262a13.64457,13.64457,0,0,1-1.18208,2.20955,7.2299,7.2299,0,0,1-3.04452,2.828A5.212,5.212,0,0,1,335.6808,669.14724Z" transform="translate(-225.26637 -135.8018)" fill="#ffacf7"/><circle cx="369.82162" cy="516.02819" r="35.42304" fill="#e6e6e6"/><circle cx="369.82163" cy="516.0282" r="27.15767" fill="#fff"/><path d="M600.0359,667.91079H590.14a1.237,1.237,0,0,1,0-2.474h9.89584a1.237,1.237,0,1,1,0,2.474Z" transform="translate(-225.26637 -135.8018)" fill="#ffacf7"/><path d="M595.088,661.72587A11.14547,11.14547,0,0,1,583.95514,650.593v-2.474a1.237,1.237,0,0,1,2.474,0h0v2.474a8.65888,8.65888,0,1,0,17.31776,0v-2.474a1.237,1.237,0,0,1,2.474,0h0v2.474A11.1455,11.1455,0,0,1,595.088,661.72587Z" transform="translate(-225.26637 -135.8018)" fill="#ffacf7"/><path d="M595.088,667.91079a1.237,1.237,0,0,1-1.237-1.237v-6.185a1.237,1.237,0,1,1,2.474,0v6.18492a1.23694,1.23694,0,0,1-1.23687,1.237Z" transform="translate(-225.26637 -135.8018)" fill="#ffacf7"/><path d="M595.088,656.778a6.09453,6.09453,0,0,1-4.37194-1.8632,6.25376,6.25376,0,0,1-1.81294-4.399V641.9342a6.16094,6.16094,0,0,1,6.13683-6.18492h0c.016,0,.03206,0,.048,0a6.11911,6.11911,0,0,1,6.18492,6.05263q.0007.06613,0,.13229v8.58157A6.23127,6.23127,0,0,1,595.088,656.778Z" transform="translate(-225.26637 -135.8018)" fill="#ffacf7"/><path d="M689.13834,574.83316H248.86971a13.97116,13.97116,0,0,1-13.95509-13.95509V245.01163a13.97116,13.97116,0,0,1,13.95509-13.95509H689.13834a13.97116,13.97116,0,0,1,13.95509,13.95509V560.87807A13.97116,13.97116,0,0,1,689.13834,574.83316Z" transform="translate(-225.26637 -135.8018)" fill="#fff"/><circle id="f0eb8a1d-377e-48c0-9d21-991c559cf691" data-name="ab6171fa-7d69-4734-b81c-8dff60f9761b" cx="241.58248" cy="244.40599" r="46.60136" fill="#ffb8b8"/><path id="b8afa8df-987b-4162-a0c0-598051c1ab31" data-name="bf427902-b9bf-4946-b5d7-5c1c7e04535e" d="M414.86364,335.37692c.35234-5.35152,3.89138-10.82772,15.13541-13.6893,0,0,19.29674-24.67547,45.51878-11.73532,0,0,12.71234-2.18707,22.13883,11.00245,0,0,9.34585-5.512,13.28893,4.258,0,0,10.96112,19.92861,6.92574,40.25581s-6.10093,22.864-6.10093,22.864,5.14371-42.04643-24.48265-39.13087-53.47845-7.50309-60.18764,15.30815c-5.571,18.94155-4.86926,28.77892-4.86926,28.77892s-18.6298-18.89583-12.29563-33.77491C413.17489,351.90381,414.32027,343.63,414.86364,335.37692Z" transform="translate(-225.26637 -135.8018)" fill="#2f2e41"/><path d="M340.12148,574.35154H597.8864c-1.72271-19.66223-2.84873-34.291-2.84873-39.23788,0-21.818-17.85288-45.62831-17.85288-45.62831l-6.39048-3.53212-53.3662-16.64986L503.6174,451.36385a15.35712,15.35712,0,0,0-12.29975-6.00549l-43.62652.32725a15.40367,15.40367,0,0,0-10.346,4.09991L410.33,474.84692l-39.62287,18.92115-.06738-.06732-.41383.30793-5.88037,4.23467-3.78231,2.7333s-9.92254,11.90513-17.85288,47.61089C341.517,553.95786,340.67964,562.94683,340.12148,574.35154Z" transform="translate(-225.26637 -135.8018)" fill="#ffacf7"/><path d="M928.44641,744H781.5265a18.30678,18.30678,0,0,1-18.286-18.286V625.08708a18.30678,18.30678,0,0,1,18.286-18.286H928.44641a18.30678,18.30678,0,0,1,18.286,18.286V725.714A18.30678,18.30678,0,0,1,928.44641,744ZM781.5265,616.4253a8.67186,8.67186,0,0,0-8.66178,8.66178V725.714a8.67186,8.67186,0,0,0,8.66178,8.66178H928.44641a8.67186,8.67186,0,0,0,8.66178-8.66178V625.08708a8.67186,8.67186,0,0,0-8.66178-8.66178Z" transform="translate(-225.26637 -135.8018)" fill="#e6e6e6"/><path d="M928.44634,739.66921H781.52644a13.97116,13.97116,0,0,1-13.95509-13.95509V625.08671a13.97116,13.97116,0,0,1,13.95509-13.95509h146.9199a13.97116,13.97116,0,0,1,13.95509,13.95509V725.71412A13.97116,13.97116,0,0,1,928.44634,739.66921Z" transform="translate(-225.26637 -135.8018)" fill="#fff"/><path d="M868.76343,643.88792c.84958-5.29866-1.55383-9.20009-7.92563-11.40225-6.33826-5.4999-15.70611-6.81906-21.329,1.98975a8.82325,8.82325,0,0,0-9.3006,7.90337c-5.16455,6.003.57015,28.03618,2.2693,36.43139l9.06593-.08946,18.09818-.17881,9.12184-.08946L872.24,658.76678C874.3528,653.04324,873.49212,648.024,868.76343,643.88792Z" transform="translate(-225.26637 -135.8018)" fill="#e6e6e6"/><path d="M901.68473,726.7658a43.68017,43.68017,0,0,1,7.48965-3.82307l-25.7781-30.60724L866.36,687.9757q-.20944-.11763-.41466-.24125l-28.73926,1.102-.12294-.123-18.12063,8.86468-25.7781,29.80242a43.37557,43.37557,0,0,1,7.29975,3.689l-2.66052,10.11675h18.44481l4.90744-7.132h.24589c0-.12295.01122-.24595.01122-.3689l3.44313-5.00806c.07807,4.0467-.03354,8.21635-.313,12.50894H881.932c-.08941-3.566-.11179-7.10972-.11179-10.63091l6.41656,9.31187c.48063-.70425.99479-1.36386,1.50907-2.03457l1.26318,3.35361h14.68883l-3.52132-13.39206A3.1321,3.1321,0,0,0,901.68473,726.7658Z" transform="translate(-225.26637 -135.8018)" fill="#e6e6e6"/><path d="M951.028,575.04971h-192.083a23.93427,23.93427,0,0,1-23.90708-23.90708V419.583a23.93427,23.93427,0,0,1,23.90708-23.90708H951.028A23.93427,23.93427,0,0,1,974.935,419.583V551.14263A23.93427,23.93427,0,0,1,951.028,575.04971Zm-192.083-166.7911A11.33758,11.33758,0,0,0,747.62054,419.583V551.14263A11.33758,11.33758,0,0,0,758.94495,562.467H951.028a11.33758,11.33758,0,0,0,11.32441-11.32441V419.583A11.33758,11.33758,0,0,0,951.028,408.25861Z" transform="translate(-225.26637 -135.8018)" fill="#e6e6e6"/><path d="M951.02787,569.38789h-192.083A18.26589,18.26589,0,0,1,740.7,551.143V419.58279a18.26589,18.26589,0,0,1,18.24488-18.24488h192.083a18.26588,18.26588,0,0,1,18.24488,18.24488V551.143A18.26588,18.26588,0,0,1,951.02787,569.38789Z" transform="translate(-225.26637 -135.8018)" fill="#fff"/><path d="M887.27739,462.929a18.95547,18.95547,0,0,0-6.97138-12.56885c1.30073-8.22828-2.42615-14.27893-12.3059-17.69885-9.82123-8.52056-24.36311-10.5813-33.07352,3.08377a13.69751,13.69751,0,0,0-14.4399,12.262c-7.16123,8.33049.21941,24.94778,3.74155,37.67744a4.9589,4.9589,0,0,0,4.19451,3.56607,28.29019,28.29019,0,0,0,9.01753,8.49131l28.17769.29237a28.14929,28.14929,0,0,0,13.3287-17.37721l3.36155-3.60992A18.12836,18.12836,0,0,0,887.27739,462.929Z" transform="translate(-225.26637 -135.8018)" fill="#e6e6e6"/><path d="M899.2764,519.4014l-31.84621-13.022-31.247,1.15459-23.74941,10.6836-.01444-.2923-2.29451,1.33-3.6391,1.63689c.0291.14607.05836.2777.08762.42377l-.3363.19a25.3434,25.3434,0,0,0-11.078,13.16819l-12.20367,35.71908H892.21731a84.52314,84.52314,0,0,1,4.09228-10.90294l.02927-.39459L906.043,570.3931h29.63925Z" transform="translate(-225.26637 -135.8018)" fill="#e6e6e6"/><path d="M928.44634,363.92455H781.52644a18.30678,18.30678,0,0,1-18.286-18.286V245.01163a18.30678,18.30678,0,0,1,18.286-18.286h146.9199a18.30678,18.30678,0,0,1,18.286,18.286V345.63857A18.30678,18.30678,0,0,1,928.44634,363.92455Zm-146.9199-127.5747a8.67185,8.67185,0,0,0-8.66178,8.66178V345.63857a8.67186,8.67186,0,0,0,8.66178,8.66178h146.9199a8.67186,8.67186,0,0,0,8.66178-8.66178V245.01163a8.67186,8.67186,0,0,0-8.66178-8.66178Z" transform="translate(-225.26637 -135.8018)" fill="#e6e6e6"/><path d="M928.44634,359.59366H781.52644a13.97116,13.97116,0,0,1-13.95509-13.95509V245.01163a13.97116,13.97116,0,0,1,13.95509-13.95509h146.9199a13.97116,13.97116,0,0,1,13.95509,13.95509V345.63857A13.97116,13.97116,0,0,1,928.44634,359.59366Z" transform="translate(-225.26637 -135.8018)" fill="#fff"/><path d="M836.42943,280.67145a19.33349,19.33349,0,0,0,37.81341,3.47626c.62636-.65226,7.56466-8.06725,5.05341-13.96636a30.5206,30.5206,0,0,1-2.0455-10.01777c-.14621-2.22108-1.615-4.4939-6.28175-5.68159,0,0-8.00893-10.24128-18.89214-4.87061,0,0-5.27609-.90773-9.18845,4.56644,0,0-3.87888-2.28768-5.51541,1.76724,0,0-4.54929,8.27115-2.87446,16.70777A72.67112,72.67112,0,0,0,836.42943,280.67145Z" transform="translate(-225.26637 -135.8018)" fill="#e6e6e6"/><path d="M907.1972,350.65435c-3.2914-14.81929-7.40964-19.76039-7.40964-19.76039l-1.56981-1.13441-2.44059-1.75755-.17176-.12782-.028.028-16.445-7.853-11.21234-10.40146a6.39332,6.39332,0,0,0-4.294-1.70163l-18.10676-.13581a6.37375,6.37375,0,0,0-5.10487,2.49252l-5.732,7.4456-22.149,6.91034-2.6523,1.466s-7.40964,9.8822-7.40964,18.93755c0,2.05319-.46735,8.1247-1.18235,16.2853H908.2717A72.9666,72.9666,0,0,0,907.1972,350.65435Z" transform="translate(-225.26637 -135.8018)" fill="#e6e6e6"/><path d="M973.649,175.718H226.351a1.10905,1.10905,0,0,1,0-2.21757H973.649a1.10905,1.10905,0,0,1,0,2.21757Z" transform="translate(-225.26637 -135.8018)" fill="#cacaca"/><ellipse cx="25.49694" cy="12.19662" rx="11.93074" ry="12.19662" fill="#3f3d56"/><ellipse cx="66.71221" cy="12.19662" rx="11.93074" ry="12.19662" fill="#3f3d56"/><ellipse cx="107.92749" cy="12.19662" rx="11.93074" ry="12.19662" fill="#3f3d56"/><path d="M948.95487,143.26208H919.67033a2.2181,2.2181,0,0,1,0-4.43513h29.28454a2.2181,2.2181,0,0,1,0,4.43513Z" transform="translate(-225.26637 -135.8018)" fill="#3f3d56"/><path d="M948.95487,151.578H919.67033a2.21811,2.21811,0,0,1,0-4.43514h29.28454a2.21811,2.21811,0,0,1,0,4.43514Z" transform="translate(-225.26637 -135.8018)" fill="#3f3d56"/><path d="M948.95487,159.89384H919.67033a2.21811,2.21811,0,0,1,0-4.43514h29.28454a2.21811,2.21811,0,0,1,0,4.43514Z" transform="translate(-225.26637 -135.8018)" fill="#3f3d56"/></svg>